<!-- Nostr ostrich mascot (community logo, no official trademark), silhouette traced with potrace; circular badge added --><svg role="img" viewBox="0 0 24 24" xmlns="http://www.w3.org/2000/svg"><title>Nostr</title><circle cx="12" cy="12" r="12" fill="#d0d0d0"/><path fill="#000000" transform="translate(5.6528 19.2533) scale(0.0021313,-0.0021313)" d="M5102 6797 c-84 -24 -151 -101 -193 -223 -21 -60 -24 -87 -24 -214 0 -126 3 -152 22 -203 56 -142 136 -257 254 -364 32 -28 66 -59 76 -69 11 -11 63 -52 116 -93 174 -133 242 -221 272 -351 28 -123 13 -263 -41 -378 -48 -102 -174 -204 -303 -247 -54 -18 -128 -17 -346 1 -51 4 -86 1 -125 -10 -29 -9 -74 -16 -98 -16 -46 0 -70 12 -292 147 -191 116 -323 168 -520 205 -155 29 -474 32 -625 5 -315 -57 -487 -121 -1015 -380 -241 -118 -369 -171 -461 -191 -107 -23 -265 -36 -454 -36 -198 0 -213 -1 -230 -20 -17 -19 -17 -32 0 -87 7 -21 4 -23 -26 -23 -19 0 -54 8 -79 17 -69 25 -280 22 -385 -6 -239 -64 -454 -248 -564 -483 -43 -93 -63 -160 -59 -203 5 -62 24 -65 125 -17 184 87 205 86 177 -9 -9 -30 -20 -59 -25 -65 -15 -18 -32 -151 -25 -198 8 -53 37 -86 75 -86 18 0 44 19 91 69 125 131 220 193 220 143 0 -10 -9 -43 -20 -75 -28 -79 -28 -216 -1 -241 24 -22 40 -17 136 39 185 109 234 127 489 176 185 36 191 35 301 -37 172 -112 386 -196 708 -278 114 -29 210 -56 213 -59 57 -57 -432 -524 -646 -618 -137 -60 -196 -125 -226 -246 -21 -86 -36 -115 -123 -238 -81 -114 -171 -244 -206 -295 -13 -19 -40 -56 -60 -82 -19 -25 -35 -49 -35 -52 0 -3 -21 -34 -47 -70 -27 -36 -75 -104 -108 -151 -116 -167 -181 -250 -214 -272 -18 -12 -67 -30 -109 -39 -42 -9 -98 -27 -123 -40 -89 -45 -169 -145 -169 -212 0 -43 20 -55 80 -47 58 8 66 -6 27 -49 -22 -23 -60 -94 -102 -189 -56 -128 -31 -345 38 -335 17 2 35 28 75 108 64 127 114 193 246 327 70 72 128 144 188 235 122 186 163 246 240 351 109 149 163 222 168 227 3 3 24 30 45 60 39 54 60 81 80 104 6 6 37 47 70 91 33 44 65 85 70 91 6 6 21 26 35 43 14 17 35 43 48 58 13 16 41 52 63 80 32 43 54 60 123 93 60 28 96 53 126 87 39 44 90 139 90 167 0 19 54 66 220 190 85 63 202 150 259 193 128 97 110 86 243 134 227 81 239 81 195 7 -44 -72 -74 -138 -124 -263 -44 -110 -48 -127 -48 -206 0 -77 3 -90 28 -128 68 -103 158 -107 308 -13 41 25 113 55 199 81 74 23 218 69 320 101 621 196 685 210 709 153 6 -16 15 -54 21 -85 11 -69 48 -124 91 -133 48 -11 59 6 52 81 -5 55 -3 64 12 70 13 5 33 -10 79 -60 146 -160 320 -228 303 -119 -4 20 -17 52 -30 72 -36 53 -188 288 -226 348 -77 123 -144 166 -259 166 -40 -1 -85 -5 -100 -11 -15 -6 -88 -27 -162 -48 -74 -20 -171 -49 -215 -64 -44 -15 -129 -42 -190 -60 -105 -31 -219 -67 -460 -144 -126 -41 -125 -41 -125 -21 0 38 152 235 182 235 5 0 21 8 36 18 15 11 45 31 67 45 23 15 58 54 79 87 22 34 47 65 57 70 10 6 66 10 126 10 152 0 410 25 528 50 322 70 576 249 682 480 47 103 65 205 67 395 2 111 7 166 16 181 7 11 75 58 151 104 179 108 294 195 394 297 118 119 239 307 297 458 58 151 63 180 63 345 0 140 -3 164 -27 243 -65 212 -168 338 -450 552 -168 127 -208 178 -208 263 l0 53 47 21 c97 43 143 50 388 58 132 4 241 8 243 9 2 1 2 11 0 24 -2 15 -18 30 -51 46 -53 27 -51 38 8 43 31 2 41 7 43 23 2 14 -6 23 -25 31 -27 11 -170 55 -223 69 -80 21 -171 64 -271 130 -62 42 -129 80 -149 85 -59 17 -133 20 -178 7z"/></svg>
